<svg width="100" height="100" viewBox="0 0 100 100" fill="none" xmlns="http://www.w3.org/2000/svg">
<g opacity="0.05">
<line x1="10.5" x2="10.5" y2="100" stroke="#A8A8A8" stroke-opacity="0.72549"/>
<line x1="20.5" x2="20.5" y2="100" stroke="#A8A8A8" stroke-opacity="0.72549"/>
<line x1="30.5" x2="30.5" y2="100" stroke="#A8A8A8" stroke-opacity="0.72549"/>
<line x1="40.5" x2="40.5" y2="100" stroke="#A8A8A8" stroke-opacity="0.72549"/>
<line x1="50.5" x2="50.5" y2="100" stroke="white" stroke-opacity="0.86"/>
<line x1="60.5" x2="60.5" y2="100" stroke="#A8A8A8" stroke-opacity="0.72549"/>
<line x1="70.5" x2="70.5" y2="100" stroke="#A8A8A8" stroke-opacity="0.72549"/>
<line x1="80.5" x2="80.5" y2="100" stroke="#A8A8A8" stroke-opacity="0.72549"/>
<line x1="90.5" x2="90.5" y2="100" stroke="#A8A8A8" stroke-opacity="0.72549"/>
<line x1="0.5" x2="0.5" y2="100" stroke="white" stroke-opacity="0.86"/>
<line y1="90.5" x2="100" y2="90.5" stroke="#A8A8A8" stroke-opacity="0.72549"/>
<line y1="80.5" x2="100" y2="80.5" stroke="#A8A8A8" stroke-opacity="0.72549"/>
<line y1="70.5" x2="100" y2="70.5" stroke="#A8A8A8" stroke-opacity="0.72549"/>
<line y1="60.5" x2="100" y2="60.5" stroke="#A8A8A8" stroke-opacity="0.72549"/>
<line y1="50.5" x2="100" y2="50.5" stroke="white" stroke-opacity="0.86"/>
<line y1="0.5" x2="100" y2="0.5" stroke="white" stroke-opacity="0.86"/>
<line y1="40.5" x2="100" y2="40.5" stroke="#A8A8A8" stroke-opacity="0.72549"/>
<line y1="30.5" x2="100" y2="30.5" stroke="#A8A8A8" stroke-opacity="0.72549"/>
<line y1="20.5" x2="100" y2="20.5" stroke="#A8A8A8" stroke-opacity="0.72549"/>
<line y1="10.5" x2="100" y2="10.5" stroke="#A8A8A8" stroke-opacity="0.72549"/>
</g>
</svg>
